<?xml version="1.0" encoding="UTF-8" standalone="no"?><!DOCTYPE svg PUBLIC "-//W3C//DTD SVG 1.1//EN" "http://www.w3.org/Graphics/SVG/1.1/DTD/svg11.dtd">
<svg width="100%" height="100%" viewBox="0 0 123 123" style="fill-rule:evenodd;clip-rule:evenodd;stroke-linejoin:round;stroke-miterlimit:2;" version="1.1" xmlns="http://www.w3.org/2000/svg" xmlns:xlink="http://www.w3.org/1999/xlink" xml:space="preserve" xmlns:serif="http://www.serif.com/">
    <style>
        .border { fill: #0e75c1 }
        @media (prefers-color-scheme: dark) {
            .border { fill: #1eb4ff) }
        }

        .text { fill: #1d3557 }
        @media (prefers-color-scheme: dark) {
            .text { fill: #f7faee }
        }

        .background { fill: #f7faee }
        @media (prefers-color-scheme: dark) {
            .background { fill: #1d3557 }
        }
    </style>
    <rect x="0" y="0" width="122.88" height="122.88" class="background" />
    <path d="M122.88,0l0,122.88l-122.88,0l0,-122.88l122.88,0Zm-8,8l-106.88,-0l0,106.88l106.88,-0l-0,-106.88Z" class="border" />
    <g><path d="M36.021,83.807l-15.54,-41.81l14.282,0l5.328,17.982l3.848,15.54l-2.368,0l3.552,-15.54l5.106,-17.982l14.06,0l-15.466,41.81l-12.802,0Z" class="text" /><path d="M67.249,80.477l1.332,-9.25c0.395,0.345 1.215,0.808 2.461,1.387c1.246,0.58 2.719,1.098 4.421,1.554c1.702,0.456 3.453,0.684 5.254,0.684c2.146,0.025 3.681,-0.203 4.606,-0.684c0.925,-0.481 1.388,-1.24 1.388,-2.275c0,-0.715 -0.333,-1.338 -0.999,-1.869c-0.666,-0.53 -1.566,-1.03 -2.701,-1.498c-1.135,-0.469 -2.393,-0.95 -3.774,-1.443c-3.009,-1.085 -5.396,-2.282 -7.159,-3.589c-1.764,-1.307 -3.028,-2.781 -3.793,-4.421c-0.765,-1.64 -1.135,-3.509 -1.11,-5.606c0,-2.664 0.771,-4.884 2.312,-6.66c1.542,-1.776 3.608,-3.108 6.197,-3.996c2.59,-0.888 5.451,-1.332 8.584,-1.332c3.379,0 6.204,0.29 8.473,0.87c2.269,0.58 3.86,1.128 4.773,1.646l-1.184,9.398c-0.493,-0.444 -1.27,-0.913 -2.331,-1.406c-1.061,-0.493 -2.257,-0.913 -3.589,-1.258c-1.332,-0.345 -2.664,-0.518 -3.996,-0.518c-2.294,0 -3.916,0.234 -4.865,0.703c-0.95,0.469 -1.425,1.172 -1.425,2.109c0,1.11 0.506,1.924 1.517,2.442c1.011,0.518 2.602,1.184 4.773,1.998c3.256,1.184 5.877,2.38 7.862,3.589c1.986,1.209 3.429,2.578 4.329,4.107c0.9,1.529 1.351,3.379 1.351,5.55c0,4.292 -1.585,7.548 -4.755,9.768c-3.17,2.22 -7.381,3.33 -12.636,3.33c-2.269,0 -4.428,-0.179 -6.475,-0.536c-2.047,-0.358 -3.842,-0.796 -5.383,-1.314c-1.542,-0.518 -2.695,-1.011 -3.46,-1.48Z" class="text" /></g>
</svg>